<svg id="Capa_1" enable-background="new 0 0 497.995 497.995" height="512" viewBox="0 0 497.995 497.995" width="512" xmlns="http://www.w3.org/2000/svg"><g><g><path d="m438.181 428.831v-17.822c0-44.225-35.979-80.204-80.204-80.204h-11.421l.485-62.392c12.952-2.615 23.778-11.938 28.104-24.824l10.182-34.495h-38.829v-69.938h-18.863l-65.494-83.026c9.774-4.837 16.512-14.912 16.512-26.536.001-16.318-13.275-29.594-29.593-29.594s-29.593 13.276-29.593 29.594c0 11.62 6.735 21.692 16.503 26.531l-65.605 83.031h-18.727l-.016 69.938h-38.657l10.099 34.23.083.264c4.366 13.01 15.36 22.383 28.476 24.894v62.323h-11.604c-44.225 0-80.204 35.979-80.204 80.204v86.986h378.367v-53.998h-15v38.998h-46.684v-56.526h-15v56.526h-224.876v-56.526h-15v56.526h-46.808v-71.986c0-35.954 29.25-65.204 65.204-65.204h11.927c.929 11.807 4.054 23.2 9.338 33.958l13.464-6.613c-4.263-8.678-6.852-17.848-7.744-27.344h38.863c3.538 20.613 21.527 36.352 43.133 36.352 21.607 0 39.596-15.739 43.134-36.352h38.837c-2.093 18.774-10.508 36.146-24.157 49.55-15.506 15.228-36.016 23.614-57.752 23.614-26.524 0-51.592-12.642-67.055-33.817l-12.114 8.846c18.277 25.028 47.873 39.971 79.169 39.971 25.691 0 49.935-9.913 68.262-27.911 16.54-16.243 26.585-37.415 28.734-60.252h11.921c35.954 0 65.204 29.25 65.204 65.204v17.822h14.999zm-254.387-178.468v-30.122l38.202-29.982h54.77l37.283 29.931v30.173c0 35.912-29.216 65.127-65.127 65.127s-65.128-29.215-65.128-65.127zm108.98 67.013c16.78-11.018 29.186-28.155 34.028-48.22h5.233l-.479 61.649h-38.781v-13.429zm68.109-78.438c-3.114 9.108-11.654 15.219-21.29 15.219h-10.64c.059-1.258.096-2.521.096-3.793v-26.27h36.213zm-29.386-29.844h-7.31l-23.461-18.834h30.771zm-82.437-194.094c8.047 0 14.594 6.547 14.594 14.594s-6.547 14.593-14.594 14.593-14.593-6.546-14.593-14.593 6.546-14.594 14.593-14.594zm-82.422 139.156h52.484v-15h-29.64l59.573-75.396 59.474 75.396h-74.531v15h97.5v21.103h-49.456-65.229-50.174v-21.103zm-.016 36.103h31.078l-23.998 18.834h-7.08zm-29.213 48.679-4.379-14.844h35.764v26.27c0 1.272.037 2.535.096 3.793h-10.192c-9.636-.001-18.175-6.111-21.289-15.219zm29.213 30.218h4.419c4.857 20.125 17.323 37.303 34.18 48.317v13.332h-38.599zm82.375 98.001c-15.867 0-28.776-12.909-28.776-28.776v-13.225c8.917 3.433 18.588 5.335 28.7 5.335 10.17 0 19.893-1.924 28.852-5.396v13.286c.001 15.867-12.908 28.776-28.776 28.776z"/><path d="m219.404 225.945h15.125v15h-15.125z"/><path d="m264.279 225.945h15.125v15h-15.125z"/></g><path d="m285.997 462.76h-15v-15h15zm-30 0h-15v-15h15zm-30 0h-15v-15h15z"/></g></svg>