<?xml version="1.0" encoding="iso-8859-1"?>
<!-- Generator: Adobe Illustrator 19.0.0, SVG Export Plug-In . SVG Version: 6.00 Build 0)  -->
<svg version="1.1" id="Capa_1" xmlns="http://www.w3.org/2000/svg" xmlns:xlink="http://www.w3.org/1999/xlink" x="0px" y="0px"
	 viewBox="0 0 512 512" style="enable-background:new 0 0 512 512;" xml:space="preserve">
<g>
	<g>
		<path d="M424,444h-26.645v-26.833c0-3.586-1.92-6.897-5.032-8.679c-19.484-11.154-31.588-32.03-31.588-54.481v-42.47
			c0-35.231-17.415-68.06-46.586-87.816c-1.655-1.121-3.608-1.721-5.607-1.721H302v-16h3c5.522,0,10-4.478,10-10
			c0-5.522-4.478-10-10-10h-2.831L265.926,8.005C264.978,3.347,260.881,0,256.127,0c-4.754,0-8.851,3.347-9.799,8.005L210.085,186
			H207c-5.522,0-10,4.478-10,10c0,5.522,4.478,10,10,10h3v16h-6.542c-1.999,0-3.952,0.6-5.607,1.72
			c-16.057,10.874-28.82,25.938-36.913,43.564c-2.305,5.02-0.104,10.956,4.915,13.261c5.02,2.306,10.956,0.104,13.261-4.915
			c6.149-13.396,15.626-24.968,27.505-33.63h98.764c22.193,16.177,35.354,41.949,35.354,69.537v42.47
			c0,19.619,7.016,38.321,19.222,52.989h-61.83v-60.732c0-13.716-7.338-26.565-19.148-33.534l-3.537-2.089
			c-5.745-3.391-9.314-9.641-9.314-16.312c0-5.522-4.478-10-10-10c-5.522,0-10,4.478-10,10c0,6.671-3.569,12.921-9.314,16.313
			l-3.536,2.087c-11.812,6.97-19.149,19.819-19.149,33.535v60.732h-62.084c12.206-14.668,19.222-33.37,19.222-52.989
			c0-5.522-4.478-10-10-10c-5.522,0-10,4.478-10,10c0,22.451-12.104,43.327-31.588,54.481c-3.112,1.781-5.032,5.093-5.032,8.679V444
			H88c-5.522,0-10,4.478-10,10v48c0,5.522,4.478,10,10,10h240.333c5.522,0,10-4.478,10-10c0-5.522-4.478-10-10-10H298v-28h116v28
			h-8.333c-5.522,0-10,4.478-10,10c0,5.522,4.478,10,10,10H424c5.522,0,10-4.478,10-10v-48C434,448.478,429.522,444,424,444z
			 M256.127,60.119L265.469,106h-18.685L256.127,60.119z M242.713,126h26.829l4.072,20H238.64L242.713,126z M234.567,166h43.119
			l4.072,20h-51.264L234.567,166z M282,222h-52v-16h52V222z M214,492H98v-28h116V492z M214,444h-79.355v-17.004H214V444z M278,492
			h-44v-28h44V492z M278,444h-44v-17.004h44V444z M278.125,406.996h-44v-60.732h0.002c0-6.671,3.568-12.921,9.314-16.312
			l3.537-2.087c3.456-2.04,6.53-4.584,9.148-7.506c2.618,2.922,5.691,5.465,9.148,7.505l3.538,2.089
			c5.745,3.39,9.313,9.64,9.313,16.311V406.996z M377.355,444H298v-17.004h79.355V444z"/>
	</g>
</g>
<g>
	<g>
		<path d="M373.399,494.93c-1.859-1.861-4.429-2.93-7.069-2.93c-2.63,0-5.21,1.069-7.07,2.93c-1.86,1.861-2.93,4.44-2.93,7.07
			s1.069,5.21,2.93,7.069c1.86,1.86,4.44,2.931,7.07,2.931c2.64,0,5.21-1.07,7.069-2.931c1.86-1.859,2.931-4.439,2.931-7.069
			S375.26,496.79,373.399,494.93z"/>
	</g>
</g>
<g>
	<g>
		<path d="M168.33,304.47c-1.86-1.87-4.431-2.93-7.07-2.93c-2.63,0-5.2,1.06-7.07,2.93c-1.859,1.86-2.93,4.43-2.93,7.07
			c0,2.63,1.07,5.21,2.93,7.069c1.87,1.861,4.44,2.931,7.07,2.931c2.64,0,5.21-1.07,7.07-2.931c1.87-1.859,2.939-4.439,2.939-7.069
			S170.2,306.33,168.33,304.47z"/>
	</g>
</g>
<g>
</g>
<g>
</g>
<g>
</g>
<g>
</g>
<g>
</g>
<g>
</g>
<g>
</g>
<g>
</g>
<g>
</g>
<g>
</g>
<g>
</g>
<g>
</g>
<g>
</g>
<g>
</g>
<g>
</g>
</svg>
